<?xml version="1.0" encoding="UTF-8"?>
<svg xmlns="http://www.w3.org/2000/svg" viewBox="0 0 600 400" font-family="Arial, sans-serif">
  <rect x="0" y="0" width="600" height="400" fill="#1a1a2e" rx="8"/>
  <text x="300" y="30" text-anchor="middle" fill="#e0e0e0" font-size="16" font-weight="bold">The Erd\H{o}s Discrepancy Problem</text>
  
  <!-- Sequence visualization -->
  <text x="100" y="60" text-anchor="middle" fill="#aaa" font-size="11">Sequence cₙ ∈ {-1, +1}</text>
  <rect x="30" y="70" width="540" height="35" fill="#16213e" stroke="#0f3460" stroke-width="1" rx="4"/>
  <text x="300" y="93" text-anchor="middle" fill="#e0e0e0" font-size="14" font-family="monospace">
    +1, -1, -1, +1, +1, -1, +1, -1, -1, +1, +1, -1, +1, -1, -1, +1, ...
  </text>
  
  <!-- Arithmetic progressions -->
  <text x="300" y="130" text-anchor="middle" fill="#aaa" font-size="12">Partial Sums Along Arithmetic Progressions</text>
  
  <!-- d=1 -->
  <text x="60" y="155" fill="#16c79a" font-size="10">d=1:</text>
  <text x="95" y="155" fill="#e0e0e0" font-size="10">c₁+c₂+...+cₙ</text>
  <polyline points="95,170 120,165 145,175 170,160 195,172 220,158 245,168 270,155 295,165" 
            fill="none" stroke="#16c79a" stroke-width="1.5"/>
  <text x="310" y="158" fill="#aaa" font-size="9">oscillates</text>
  
  <!-- d=2 -->
  <text x="60" y="190" fill="#53a8b9" font-size="10">d=2:</text>
  <text x="95" y="190" fill="#e0e0e0" font-size="10">c₂+c₄+...+c₂ₙ</text>
  <polyline points="95,205 120,198 145,210 170,200 195,208 220,195 245,203 270,192 295,202" 
            fill="none" stroke="#53a8b9" stroke-width="1.5"/>
  <text x="310" y="195" fill="#aaa" font-size="9">oscillates</text>
  
  <!-- d=3 -->
  <text x="60" y="225" fill="#f0a500" font-size="10">d=3:</text>
  <text x="95" y="225" fill="#e0e0e0" font-size="10">c₃+c₆+...+c₃ₙ</text>
  <polyline points="95,240 120,232 145,245 170,235 195,242 220,230 245,238 270,228 295,236" 
            fill="none" stroke="#f0a500" stroke-width="1.5"/>
  <text x="310" y="235" fill="#aaa" font-size="9">oscillates</text>
  
  <!-- d=5 -->
  <text x="60" y="260" fill="#e94560" font-size="10">d=5:</text>
  <text x="95" y="260" fill="#e0e0e0" font-size="10">c₅+c₁₀+...+c₅ₙ</text>
  <polyline points="95,275 120,268 145,280 170,265 195,278 220,262 245,273 270,260 295,270" 
            fill="none" stroke="#e94560" stroke-width="1.5"/>
  <text x="310" y="270" fill="#aaa" font-size="9">oscillates</text>
  
  <!-- Key insight box -->
  <rect x="50" y="295" width="500" height="90" fill="#16213e" stroke="#0f3460" stroke-width="2" rx="8"/>
  <text x="300" y="318" text-anchor="middle" fill="#e0e0e0" font-size="13" font-weight="bold">The Question</text>
  <text x="300" y="338" text-anchor="middle" fill="#53a8b9" font-size="11">Can we keep ALL partial sums bounded simultaneously?</text>
  <text x="300" y="358" text-anchor="middle" fill="#e94560" font-size="11">NO! Erd\H{o}s conjectured (1932): sup |Σ c_dn| = ∞</text>
  <text x="300" y="378" text-anchor="middle" fill="#16c79a" font-size="11">PROVED by Tao (2015) using multiplicative functions + Chowla's conjecture</text>
</svg>
